<?xml version="1.0" standalone="no"?>
<!DOCTYPE svg PUBLIC "-//W3C//DTD SVG 20010904//EN"
 "http://www.w3.org/TR/2001/REC-SVG-20010904/DTD/svg10.dtd">
<svg version="1.0" xmlns="http://www.w3.org/2000/svg"
 width="876.000000pt" height="876.000000pt" viewBox="0 0 876.000000 876.000000"
 preserveAspectRatio="xMidYMid meet">
<metadata>
Created by potrace 1.11, written by Peter Selinger 2001-2013
</metadata>
<g transform="translate(0.000000,876.000000) scale(0.100000,-0.100000)"
fill="#000000" stroke="none">
<path d="M5887 7944 c-4 -4 -14 -7 -24 -8 -21 -2 -114 -32 -158 -51 -107 -46
-135 -59 -180 -82 -116 -59 -236 -124 -320 -173 -49 -29 -100 -58 -112 -64
-13 -6 -23 -14 -23 -18 0 -5 -5 -8 -10 -8 -6 0 -23 -8 -38 -19 -15 -10 -65
-42 -111 -71 l-84 -53 -141 46 c-135 44 -162 52 -203 62 -37 10 -199 46 -223
50 -14 2 -49 9 -78 15 -29 5 -56 9 -60 9 -4 -1 -9 -1 -12 1 -14 5 -115 16
-235 26 -155 13 -523 7 -625 -10 -14 -3 -47 -7 -75 -11 -290 -35 -627 -129
-908 -254 -121 -53 -141 -59 -160 -49 -12 7 -24 13 -27 13 -3 1 -41 19 -85 39
-137 65 -422 190 -435 191 -6 0 -66 23 -95 36 -11 5 -39 13 -63 18 -33 7 -42
6 -43 -5 -2 -16 -6 -33 -8 -36 -2 -2 -4 -14 -7 -27 -2 -13 -11 -47 -19 -75 -8
-28 -17 -64 -20 -81 -3 -16 -7 -34 -9 -40 -4 -16 -25 -118 -30 -145 -3 -14 -5
-25 -6 -25 -2 0 -6 -22 -14 -70 -4 -22 -11 -65 -16 -95 -9 -52 -15 -90 -25
-170 -3 -19 -7 -46 -10 -60 -4 -24 -12 -115 -21 -249 -2 -38 -11 -76 -23 -95
-36 -59 -79 -145 -97 -193 -9 -26 -21 -52 -24 -58 -4 -5 -11 -23 -15 -40 -5
-16 -9 -32 -10 -35 -47 -157 -63 -337 -42 -485 47 -342 292 -628 703 -821 54
-26 103 -47 109 -48 5 -2 27 -10 49 -19 21 -9 42 -17 47 -17 5 0 17 -4 27 -9
20 -11 120 -42 247 -77 6 -2 19 -5 30 -7 11 -3 50 -12 86 -21 37 -8 79 -17 93
-20 14 -3 34 -7 44 -10 9 -2 37 -7 62 -10 25 -3 56 -8 70 -11 72 -15 230 -37
290 -41 25 -1 45 -3 45 -4 0 -3 34 -6 145 -14 196 -14 235 -18 238 -26 2 -5
16 -24 32 -42 17 -18 30 -39 30 -45 0 -7 3 -13 8 -13 9 0 55 -106 72 -165 35
-121 39 -179 34 -505 -9 -678 -21 -1003 -49 -1315 -10 -116 -12 -134 -31 -247
-6 -38 -30 -144 -45 -198 -7 -25 -26 -71 -43 -103 -28 -53 -37 -61 -88 -82
-32 -13 -58 -21 -58 -18 0 3 -7 -1 -16 -8 -9 -7 -22 -14 -30 -15 -8 -1 -36
-16 -64 -33 -28 -17 -55 -31 -60 -31 -6 0 -10 -4 -10 -9 0 -5 -9 -12 -20 -16
-31 -10 -149 -134 -174 -184 -36 -70 -64 -166 -68 -236 -1 -11 -6 -26 -11 -32
-6 -9 -6 -13 2 -13 19 0 12 -16 -12 -29 -20 -10 -20 -11 -1 -6 18 5 21 1 22
-31 1 -24 8 -42 22 -51 11 -8 20 -22 21 -31 0 -9 3 -12 5 -5 4 8 11 7 24 -4
10 -9 17 -20 15 -23 -3 -4 5 -7 18 -6 12 0 21 -4 20 -10 -1 -7 5 -11 15 -10
10 0 17 -6 16 -14 -1 -11 7 -16 25 -15 19 0 26 -5 24 -19 -1 -12 2 -15 9 -8
12 12 60 -9 54 -24 -3 -7 3 -10 13 -7 10 2 26 -4 36 -14 10 -10 19 -16 20 -13
0 3 19 -2 40 -12 22 -9 48 -19 58 -22 10 -3 16 -9 13 -14 -2 -4 5 -9 17 -9 33
-2 117 -34 112 -43 -2 -4 7 -5 22 -2 15 3 23 1 20 -4 -3 -6 2 -10 11 -11 9 0
26 -3 37 -6 92 -24 113 -29 135 -32 14 -1 29 -3 33 -4 5 0 5 -7 1 -13 -6 -10
-4 -10 7 -1 14 14 33 18 26 5 -3 -4 24 -8 60 -9 36 -1 70 -6 76 -12 7 -7 16
-7 30 1 15 7 22 7 28 -3 6 -9 12 -10 17 -4 4 6 23 9 42 9 52 -2 53 -3 41 -17
-8 -10 -7 -14 4 -14 8 0 12 4 10 8 -3 3 2 12 10 19 12 10 15 10 15 0 0 -10 3
-10 15 0 12 10 15 10 15 0 0 -10 3 -10 15 0 8 7 15 9 15 4 0 -9 104 -9 153 0
17 3 27 0 27 -7 0 -8 3 -8 8 -2 10 14 73 15 65 1 -4 -6 1 -5 10 3 14 11 17 11
17 0 0 -10 3 -10 12 -1 8 8 17 8 31 1 14 -8 17 -8 13 0 -5 7 10 10 46 10 47
-1 89 3 191 15 15 2 30 -1 33 -6 3 -4 11 -5 17 -1 14 9 14 9 105 16 40 4 78 9
84 13 7 5 8 2 3 -6 -6 -9 -4 -11 5 -5 7 4 27 10 44 12 17 1 55 8 85 13 39 7
58 7 68 -1 11 -9 12 -8 7 4 -7 19 16 17 42 -3 17 -14 18 -14 5 2 -7 10 -10 18
-5 19 47 4 127 19 132 24 3 3 11 0 18 -6 10 -9 15 -7 20 4 4 11 17 15 44 14
21 -2 37 0 34 4 -2 4 6 9 18 12 14 4 26 0 34 -11 12 -16 12 -16 11 1 -2 15 11
22 66 36 37 10 67 15 67 13 0 -2 6 1 13 7 8 6 17 8 20 4 4 -3 7 0 7 7 0 7 3
11 6 7 3 -3 26 3 51 14 26 11 55 21 65 23 11 1 24 9 29 17 5 8 9 10 9 5 0 -4
12 -1 26 9 14 9 32 14 40 11 8 -3 13 -2 10 2 -5 9 54 48 67 44 4 -1 7 3 7 9 0
6 7 9 15 6 8 -4 17 -1 21 5 4 7 3 8 -4 4 -7 -4 -12 -3 -12 2 0 5 9 12 20 15
11 3 24 6 28 7 4 1 15 6 26 12 14 8 17 7 11 -4 -3 -7 0 -5 8 5 8 9 20 17 28
17 8 0 27 7 43 15 16 9 36 13 43 10 9 -3 11 0 7 7 -5 8 2 9 22 4 21 -5 25 -4
14 4 -13 9 -7 14 13 11 4 0 7 4 7 10 0 8 6 7 17 -2 13 -11 15 -11 9 -1 -5 9
-1 15 13 19 12 3 21 10 21 15 0 5 5 6 10 3 6 -3 10 -2 10 2 0 5 20 17 45 27
25 11 45 22 45 26 0 15 33 20 49 8 14 -11 14 -11 3 3 -10 14 -2 24 60 72 74
56 179 158 220 212 12 17 25 32 28 35 6 5 37 53 57 85 26 45 83 168 83 180 0
8 4 16 9 19 5 3 12 23 17 43 4 21 8 40 9 43 19 64 26 96 31 132 4 24 11 79 18
123 15 104 10 391 -8 495 -3 14 -7 43 -11 65 -4 22 -14 69 -22 105 -8 36 -16
72 -18 80 -11 48 -86 276 -104 315 -8 18 -22 52 -26 65 -1 3 -6 16 -13 30
-114 254 -163 391 -178 505 -3 28 -8 53 -10 57 -9 14 -18 148 -18 258 0 101 9
265 15 265 1 0 3 9 4 20 7 54 40 174 61 223 9 20 17 42 18 47 2 14 48 109 56
115 3 3 14 18 24 35 133 208 426 328 708 290 29 -4 58 -10 63 -13 6 -4 12 -7
15 -7 24 -4 82 -38 104 -61 73 -77 70 -173 -6 -244 -48 -44 -57 -50 -72 -50
-8 0 -17 -4 -20 -9 -3 -4 -20 -12 -38 -15 -18 -4 -44 -10 -58 -13 -14 -3 -29
-6 -35 -7 -142 -36 -179 -230 -60 -320 26 -20 79 -41 95 -38 3 0 27 3 53 6
134 16 224 48 332 120 67 45 84 61 136 126 84 107 118 214 115 357 -5 180 -89
330 -249 443 -65 46 -188 105 -239 114 -12 3 -25 5 -28 6 -3 2 -8 2 -11 2 -4
-1 -22 3 -40 9 -84 26 -353 17 -499 -16 -28 -7 -26 -6 -90 -24 -58 -16 -240
-101 -240 -113 0 -4 -5 -8 -12 -8 -27 0 -144 -101 -242 -209 -44 -49 -146
-207 -146 -228 0 -7 -5 -13 -11 -13 -5 0 -7 -4 -4 -10 3 -5 1 -10 -4 -10 -6 0
-10 -3 -9 -7 1 -5 -3 -19 -9 -33 -21 -51 -55 -145 -58 -160 -2 -8 -10 -42 -19
-75 -8 -33 -18 -78 -21 -100 -4 -22 -8 -51 -11 -65 -17 -101 -22 -367 -10
-490 12 -115 38 -278 46 -287 2 -2 3 -6 5 -10 1 -5 5 -20 9 -34 4 -14 9 -32
10 -40 2 -8 6 -23 10 -34 5 -11 14 -36 21 -55 17 -45 97 -218 136 -291 16 -31
29 -64 29 -73 0 -9 5 -16 10 -16 6 0 10 -9 10 -20 0 -11 5 -20 12 -20 6 0 8
-3 5 -7 -4 -3 -3 -11 2 -17 21 -27 121 -297 121 -328 0 -10 5 -18 11 -18 6 0
9 -6 6 -12 -2 -7 0 -24 5 -37 5 -13 11 -40 14 -60 3 -20 7 -43 10 -51 7 -17
17 -117 18 -172 1 -21 5 -38 9 -38 5 0 5 -4 2 -10 -3 -5 -8 -51 -9 -102 -4
-96 -18 -221 -26 -230 -1 -2 -3 -12 -5 -23 -10 -53 -29 -105 -38 -105 -6 0 -8
-3 -4 -6 7 -7 -9 -43 -51 -115 -32 -56 -189 -226 -199 -215 -3 3 4 42 16 88
34 134 37 153 58 338 9 84 9 406 0 490 -9 75 -36 210 -45 225 -4 5 -7 16 -8
24 -4 25 -47 126 -61 142 -7 8 -13 20 -13 26 0 18 -85 100 -122 116 -64 30
-135 18 -216 -36 -49 -34 -72 -37 -72 -11 0 15 -99 271 -126 328 -8 16 -14 35
-14 43 0 7 -4 13 -10 13 -5 0 -10 6 -10 14 0 18 -34 94 -136 301 -125 255
-230 442 -311 556 -18 26 -33 49 -33 53 0 10 -172 235 -213 278 -26 27 -25 40
3 44 14 2 68 14 120 26 52 12 100 23 105 24 6 1 12 3 15 4 3 1 12 3 20 5 19 4
190 55 210 62 8 3 20 7 25 9 119 35 374 158 468 225 23 16 53 37 66 47 192
136 338 344 392 557 27 110 33 300 13 420 -17 100 -57 227 -102 325 -38 80
-39 90 -27 190 7 63 8 325 1 405 -9 108 -19 202 -22 220 -3 18 -8 49 -19 122
-2 15 -6 39 -9 53 -3 13 -8 41 -11 62 -3 21 -12 57 -19 81 -7 24 -12 51 -10
60 1 9 -2 17 -7 17 -6 0 -7 5 -4 10 3 6 3 16 -2 23 -8 13 -12 29 -16 69 -1 16
-5 28 -9 28 -5 0 -8 7 -8 16 0 9 -10 49 -21 88 -12 39 -22 76 -23 81 -6 33
-59 175 -65 175 -4 0 -11 -3 -14 -6z"/>
<path d="M6466 1122 c-3 -5 1 -9 9 -9 8 0 12 4 9 9 -3 4 -7 8 -9 8 -2 0 -6 -4
-9 -8z"/>
<path d="M6470 1096 c0 -2 8 -10 18 -17 15 -13 16 -12 3 4 -13 16 -21 21 -21
13z"/>
<path d="M2610 1059 c0 -5 5 -7 10 -4 6 3 10 8 10 11 0 2 -4 4 -10 4 -5 0 -10
-5 -10 -11z"/>
<path d="M6150 1056 c0 -2 8 -10 18 -17 15 -13 16 -12 3 4 -13 16 -21 21 -21
13z"/>
<path d="M6390 1040 c0 -5 5 -10 10 -10 6 0 10 5 10 10 0 6 -4 10 -10 10 -5 0
-10 -4 -10 -10z"/>
<path d="M6050 1019 c0 -5 5 -7 10 -4 6 3 10 8 10 11 0 2 -4 4 -10 4 -5 0 -10
-5 -10 -11z"/>
<path d="M6495 1020 c3 -5 8 -10 11 -10 2 0 4 5 4 10 0 6 -5 10 -11 10 -5 0
-7 -4 -4 -10z"/>
<path d="M2580 1006 c0 -2 8 -10 18 -17 15 -13 16 -12 3 4 -13 16 -21 21 -21
13z"/>
<path d="M2356 953 c-6 -14 -5 -15 5 -6 7 7 10 15 7 18 -3 3 -9 -2 -12 -12z"/>
<path d="M6589 923 c-13 -16 -12 -17 4 -4 9 7 17 15 17 17 0 8 -8 3 -21 -13z"/>
<path d="M2395 920 c3 -5 8 -10 11 -10 2 0 4 5 4 10 0 6 -5 10 -11 10 -5 0 -7
-4 -4 -10z"/>
<path d="M2430 921 c0 -6 4 -12 8 -15 5 -3 9 1 9 9 0 8 -4 15 -9 15 -4 0 -8
-4 -8 -9z"/>
<path d="M2495 900 c-3 -5 -1 -10 4 -10 6 0 11 5 11 10 0 6 -2 10 -4 10 -3 0
-8 -4 -11 -10z"/>
<path d="M5989 883 c-13 -16 -12 -17 4 -4 9 7 17 15 17 17 0 8 -8 3 -21 -13z"/>
<path d="M6310 896 c0 -2 8 -10 18 -17 15 -13 16 -12 3 4 -13 16 -21 21 -21
13z"/>
<path d="M6469 883 c-13 -16 -12 -17 4 -4 9 7 17 15 17 17 0 8 -8 3 -21 -13z"/>
<path d="M5735 880 c3 -5 8 -10 11 -10 2 0 4 5 4 10 0 6 -5 10 -11 10 -5 0 -7
-4 -4 -10z"/>
<path d="M6386 882 c-2 -4 4 -8 14 -8 10 0 16 4 14 8 -3 4 -9 8 -14 8 -5 0
-11 -4 -14 -8z"/>
<path d="M6580 886 c0 -2 8 -10 18 -17 15 -13 16 -12 3 4 -13 16 -21 21 -21
13z"/>
<path d="M6055 860 c-3 -5 -1 -10 4 -10 6 0 11 5 11 10 0 6 -2 10 -4 10 -3 0
-8 -4 -11 -10z"/>
<path d="M6250 859 c0 -5 5 -7 10 -4 6 3 10 8 10 11 0 2 -4 4 -10 4 -5 0 -10
-5 -10 -11z"/>
<path d="M6530 859 c0 -5 5 -7 10 -4 6 3 10 8 10 11 0 2 -4 4 -10 4 -5 0 -10
-5 -10 -11z"/>
<path d="M2749 843 c-13 -16 -12 -17 4 -4 16 13 21 21 13 21 -2 0 -10 -8 -17
-17z"/>
<path d="M2690 819 c0 -5 5 -7 10 -4 6 3 10 8 10 11 0 2 -4 4 -10 4 -5 0 -10
-5 -10 -11z"/>
<path d="M5730 819 c0 -5 5 -7 10 -4 6 3 10 8 10 11 0 2 -4 4 -10 4 -5 0 -10
-5 -10 -11z"/>
<path d="M2470 816 c0 -2 8 -10 18 -17 15 -13 16 -12 3 4 -13 16 -21 21 -21
13z"/>
<path d="M2620 806 c0 -2 8 -10 18 -17 15 -13 16 -12 3 4 -13 16 -21 21 -21
13z"/>
<path d="M6210 780 c0 -5 5 -10 11 -10 5 0 7 5 4 10 -3 6 -8 10 -11 10 -2 0
-4 -4 -4 -10z"/>
<path d="M5869 763 c-13 -16 -12 -17 4 -4 16 13 21 21 13 21 -2 0 -10 -8 -17
-17z"/>
<path d="M2636 758 c3 -5 10 -6 15 -3 13 9 11 12 -6 12 -8 0 -12 -4 -9 -9z"/>
<path d="M3076 758 c3 -5 10 -6 15 -3 13 9 11 12 -6 12 -8 0 -12 -4 -9 -9z"/>
<path d="M5959 753 c-13 -16 -12 -17 4 -4 16 13 21 21 13 21 -2 0 -10 -8 -17
-17z"/>
<path d="M6446 762 c-3 -5 1 -9 9 -9 8 0 12 4 9 9 -3 4 -7 8 -9 8 -2 0 -6 -4
-9 -8z"/>
<path d="M5450 739 c0 -5 5 -7 10 -4 6 3 10 8 10 11 0 2 -4 4 -10 4 -5 0 -10
-5 -10 -11z"/>
<path d="M6050 740 c0 -5 5 -10 11 -10 5 0 7 5 4 10 -3 6 -8 10 -11 10 -2 0
-4 -4 -4 -10z"/>
<path d="M2596 727 c3 -10 9 -15 12 -12 3 3 0 11 -7 18 -10 9 -11 8 -5 -6z"/>
<path d="M3175 700 c3 -5 8 -10 11 -10 2 0 4 5 4 10 0 6 -5 10 -11 10 -5 0 -7
-4 -4 -10z"/>
<path d="M6290 699 c0 -5 5 -7 10 -4 6 3 10 8 10 11 0 2 -4 4 -10 4 -5 0 -10
-5 -10 -11z"/>
<path d="M5079 673 c-13 -16 -12 -17 4 -4 9 7 17 15 17 17 0 8 -8 3 -21 -13z"/>
<path d="M3295 660 c3 -5 8 -10 11 -10 2 0 4 5 4 10 0 6 -5 10 -11 10 -5 0 -7
-4 -4 -10z"/>
<path d="M5839 633 c-13 -16 -12 -17 4 -4 16 13 21 21 13 21 -2 0 -10 -8 -17
-17z"/>
<path d="M2936 622 c-3 -4 4 -9 15 -9 23 -2 25 3 4 10 -8 4 -16 3 -19 -1z"/>
<path d="M3010 620 c0 -5 5 -10 11 -10 5 0 7 5 4 10 -3 6 -8 10 -11 10 -2 0
-4 -4 -4 -10z"/>
<path d="M4440 620 c-9 -6 -10 -10 -3 -10 6 0 15 5 18 10 8 12 4 12 -15 0z"/>
<path d="M4570 620 c0 -5 5 -10 11 -10 5 0 7 5 4 10 -3 6 -8 10 -11 10 -2 0
-4 -4 -4 -10z"/>
<path d="M5010 620 c0 -5 5 -10 11 -10 5 0 7 5 4 10 -3 6 -8 10 -11 10 -2 0
-4 -4 -4 -10z"/>
<path d="M5130 620 c0 -5 5 -10 11 -10 5 0 7 5 4 10 -3 6 -8 10 -11 10 -2 0
-4 -4 -4 -10z"/>
<path d="M5450 620 c0 -5 5 -10 11 -10 5 0 7 5 4 10 -3 6 -8 10 -11 10 -2 0
-4 -4 -4 -10z"/>
<path d="M3435 609 c-4 -6 -5 -12 -2 -15 2 -3 7 2 10 11 7 17 1 20 -8 4z"/>
<path d="M3554 600 c0 -13 4 -16 10 -10 7 7 7 13 0 20 -6 6 -10 3 -10 -10z"/>
<path d="M3356 593 c-6 -14 -5 -15 5 -6 7 7 10 15 7 18 -3 3 -9 -2 -12 -12z"/>
<path d="M3590 599 c0 -5 5 -7 10 -4 6 3 10 8 10 11 0 2 -4 4 -10 4 -5 0 -10
-5 -10 -11z"/>
<path d="M4119 593 c-13 -16 -12 -17 4 -4 16 13 21 21 13 21 -2 0 -10 -8 -17
-17z"/>
<path d="M5196 593 c-6 -14 -5 -15 5 -6 7 7 10 15 7 18 -3 3 -9 -2 -12 -12z"/>
<path d="M3145 580 c-3 -6 1 -7 9 -4 18 7 21 14 7 14 -6 0 -13 -4 -16 -10z"/>
<path d="M3655 580 c-3 -5 -1 -10 4 -10 6 0 11 5 11 10 0 6 -2 10 -4 10 -3 0
-8 -4 -11 -10z"/>
<path d="M4575 580 c3 -5 8 -10 11 -10 2 0 4 5 4 10 0 6 -5 10 -11 10 -5 0 -7
-4 -4 -10z"/>
<path d="M5669 563 c-13 -16 -12 -17 4 -4 16 13 21 21 13 21 -2 0 -10 -8 -17
-17z"/>
<path d="M3344 562 c4 -3 14 -7 22 -8 9 -1 13 0 10 4 -4 3 -14 7 -22 8 -9 1
-13 0 -10 -4z"/>
<path d="M3826 562 c-3 -5 1 -9 9 -9 8 0 15 4 15 9 0 4 -4 8 -9 8 -6 0 -12 -4
-15 -8z"/>
<path d="M4704 562 c4 -3 14 -7 22 -8 9 -1 13 0 10 4 -4 3 -14 7 -22 8 -9 1
-13 0 -10 -4z"/>
<path d="M3495 540 c3 -5 8 -10 11 -10 2 0 4 5 4 10 0 6 -5 10 -11 10 -5 0 -7
-4 -4 -10z"/>
<path d="M4895 540 c3 -5 8 -10 11 -10 2 0 4 5 4 10 0 6 -5 10 -11 10 -5 0 -7
-4 -4 -10z"/>
<path d="M5330 539 c0 -5 5 -7 10 -4 6 3 10 8 10 11 0 2 -4 4 -10 4 -5 0 -10
-5 -10 -11z"/>
<path d="M5535 540 c3 -5 8 -10 11 -10 2 0 4 5 4 10 0 6 -5 10 -11 10 -5 0 -7
-4 -4 -10z"/>
<path d="M5615 540 c-3 -5 -1 -10 4 -10 6 0 11 5 11 10 0 6 -2 10 -4 10 -3 0
-8 -4 -11 -10z"/>
<path d="M4110 536 c0 -2 8 -10 18 -17 15 -13 16 -12 3 4 -13 16 -21 21 -21
13z"/>
<path d="M4396 527 c3 -10 9 -15 12 -12 3 3 0 11 -7 18 -10 9 -11 8 -5 -6z"/>
<path d="M4709 523 c-13 -16 -12 -17 4 -4 16 13 21 21 13 21 -2 0 -10 -8 -17
-17z"/>
<path d="M4433 515 c0 -8 4 -12 9 -9 4 3 8 9 8 15 0 5 -4 9 -8 9 -5 0 -9 -7
-9 -15z"/>
<path d="M4470 519 c0 -5 5 -7 10 -4 6 3 10 8 10 11 0 2 -4 4 -10 4 -5 0 -10
-5 -10 -11z"/>
<path d="M5146 522 c-3 -5 1 -9 9 -9 8 0 12 4 9 9 -3 4 -7 8 -9 8 -2 0 -6 -4
-9 -8z"/>
<path d="M4775 500 c3 -5 8 -10 11 -10 2 0 4 5 4 10 0 6 -5 10 -11 10 -5 0 -7
-4 -4 -10z"/>
<path d="M4355 491 c-3 -5 -2 -12 3 -15 5 -3 9 1 9 9 0 17 -3 19 -12 6z"/>
<path d="M4513 475 c0 -8 4 -12 9 -9 5 3 6 10 3 15 -9 13 -12 11 -12 -6z"/>
<path d="M4570 480 c0 -5 5 -10 11 -10 5 0 7 5 4 10 -3 6 -8 10 -11 10 -2 0
-4 -4 -4 -10z"/>
</g>
</svg>
